<?xml version="1.0" encoding="UTF-8"?>
<svg width="240" height="240" viewBox="0 0 120 120" xmlns="http://www.w3.org/2000/svg" role="img"
  aria-label="NumberLink logo: grid and path with wordmark">
  <rect width="120" height="120" rx="18" fill="#FFFFFF" />
  <!-- grid (shifted up slightly to make room for wordmark) -->
  <g stroke="#E6E6E6" stroke-width="1.6">
    <line x1="20" y1="14" x2="20" y2="94" />
    <line x1="40" y1="14" x2="40" y2="94" />
    <line x1="60" y1="14" x2="60" y2="94" />
    <line x1="80" y1="14" x2="80" y2="94" />
    <line x1="100" y1="14" x2="100" y2="94" />
    <line x1="20" y1="14" x2="100" y2="14" />
    <line x1="20" y1="34" x2="100" y2="34" />
    <line x1="20" y1="54" x2="100" y2="54" />
    <line x1="20" y1="74" x2="100" y2="74" />
    <line x1="20" y1="94" x2="100" y2="94" />
  </g>
  <!-- path -->
  <path d="M40 94 L40 54 L80 54 L80 34 L100 34" fill="none" stroke="#00A6A6" stroke-width="8"
    stroke-linecap="round" stroke-linejoin="round" />
  <!-- endpoints -->
  <g fill="#FFB547" stroke="#FFFFFF" stroke-width="1.8">
    <circle cx="40" cy="94" r="8" />
    <circle cx="100" cy="34" r="8" />
  </g>
  <!-- endpoint numbers -->
  <text x="40" y="97" text-anchor="middle"
    font-family="Poppins, Montserrat, 'Segoe UI', Arial, sans-serif" font-size="8" fill="#FFFFFF"
    font-weight="700">1</text>
  <text x="100" y="37" text-anchor="middle"
    font-family="Poppins, Montserrat, 'Segoe UI', Arial, sans-serif" font-size="8" fill="#FFFFFF"
    font-weight="700">1</text>

  <!-- wordmark (centered below the grid) -->
  <text x="60" y="112" text-anchor="middle"
    font-family="Poppins, Montserrat, 'Segoe UI', Arial, sans-serif" font-size="11"
    font-weight="700" letter-spacing="0.2"><tspan fill="#0F2D3D">Number</tspan><tspan fill="#00A6A6">Link</tspan></text>
</svg>