<?xml version="1.0" encoding="UTF-8"?>
<svg viewBox="0 0 120 120" xmlns="http://www.w3.org/2000/svg" role="img"
  aria-label="NumberLink logo - light mode">
  <!-- <defs> -->
  <!-- Soft drop shadow for the logo card -->
  <!-- <filter id="softShadow" x="-30%" y="-30%" width="160%" height="160%"> -->
  <!-- <feDropShadow dx="0" dy="10" stdDeviation="12" flood-color="#000" flood-opacity="0.35"/> -->
  <!-- </filter> -->
  <!-- </defs> -->

  <g>
    <!-- Original light logo -->
    <g>
      <rect width="120" height="120" rx="18" fill="none" />
      <!-- grid (shifted up slightly to make room for wordmark) -->
      <!-- Add rounded line caps and joins so the grid corners connect smoothly -->
      <g stroke="#E6E6E6" stroke-width="1.6" stroke-linecap="round" stroke-linejoin="round">  <!--
        stroke-opacity="0.16"> -->
        <line x1="20" y1="14" x2="20" y2="94" />
        <line x1="40" y1="14" x2="40" y2="94" />
        <line x1="60" y1="14" x2="60" y2="94" />
        <line x1="80" y1="14" x2="80" y2="94" />
        <line x1="100" y1="14" x2="100" y2="94" />
        <line x1="20" y1="14" x2="100" y2="14" />
        <line x1="20" y1="34" x2="100" y2="34" />
        <line x1="20" y1="54" x2="100" y2="54" />
        <line x1="20" y1="74" x2="100" y2="74" />
        <line x1="20" y1="94" x2="100" y2="94" />
      </g>
      <!-- path -->
      <path d="M40 94 L40 54 L80 54 L80 34 L100 34" fill="none" stroke="#00A6A6" stroke-width="8"
        stroke-linecap="round" stroke-linejoin="round" />
      <!-- endpoints -->
      <g fill="#FFB547" stroke="#FFFFFF" stroke-width="1.8">
        <circle cx="40" cy="94" r="8" />
        <circle cx="100" cy="34" r="8" />
      </g>
      <!-- endpoint numbers -->
      <text x="40" y="97" text-anchor="middle"
        font-family="Poppins, Montserrat, 'Segoe UI', Arial, sans-serif" font-size="8"
        fill="#FFFFFF"
        font-weight="700">1</text>
      <text x="100" y="37" text-anchor="middle"
        font-family="Poppins, Montserrat, 'Segoe UI', Arial, sans-serif" font-size="8"
        fill="#FFFFFF"
        font-weight="700">1</text>

      <!-- wordmark (centered below the grid) -->
      <text x="60" y="112" text-anchor="middle"
        font-family="Poppins, Montserrat, 'Segoe UI', Arial, sans-serif" font-size="11"
        font-weight="700" letter-spacing="0.2">
        <tspan fill="#0F2D3D">Number</tspan><tspan fill="#00A6A6">Link</tspan>
      </text>
    </g>
  </g>
</svg>